<?xml version="1.0" encoding="utf-8"?>
<svg viewBox="35 35 430 430" xmlns="http://www.w3.org/2000/svg">
  <rect x="235.002" y="249.998" width="30" height="199.999" style="fill: #fca311; fill-rule: nonzero; paint-order: stroke; stroke-width: 2px; transform-origin: 250.003px 249.998px;" transform="matrix(-0.499996006489, 0.866028010845, -0.866023004055, -0.500003993511, -0.005000290869, 0.000169306725)"/>
  <rect x="235.002" y="249.998" width="30" height="199.999" style="fill: #fca311; fill-rule: nonzero; paint-order: stroke; stroke-width: 2px; transform-origin: 250.001px 249.999px;" transform="matrix(-0.499997019768, -0.866027057171, 0.866023004055, -0.500002980232, -0.001044359217, -0.000543281244)"/>
  <rect x="235" y="250" width="30" height="200" style="fill: #fca311; fill-rule: nonzero; paint-order: stroke; stroke-width: 2px; transform-origin: 249.999px 250.002px;" transform="matrix(1, -0.000001, -0.000001, 1, 0.000451999963, -0.001823000177)"/>
  <rect x="235" y="250" width="30" height="200" style="fill: #fca311; fill-rule: nonzero; paint-order: stroke; stroke-width: 2px; transform-origin: 76.798px 350.002px;" transform="matrix(-1, -0.000001, 0, -1, 173.200572178195, -100.00277079793)"/>
  <rect x="235.002" y="249.998" width="30" height="199.998" style="fill: #fca311; fill-rule: nonzero; paint-order: stroke; stroke-width: 2px; transform-origin: 423.207px 349.996px;" transform="matrix(0.499995052814, 0.866028010845, -0.866023004055, 0.50000500679, -173.207319438756, -99.996282888586)"/>
  <rect x="235.002" y="249.998" width="30" height="199.999" style="fill: #fca311; fill-rule: nonzero; paint-order: stroke; stroke-width: 2px; transform-origin: 76.797px 349.997px;" transform="matrix(0.499997019768, 0.866027057171, -0.866024017334, 0.500002980232, 173.20272470195, -99.996844225692)"/>
  <rect x="235.002" y="249.998" width="30" height="199.999" style="fill: #fca311; fill-rule: nonzero; paint-order: stroke; stroke-width: 2px; transform-origin: 423.205px 349.996px;" transform="matrix(0.499995052814, -0.866028010845, 0.866023004055, 0.50000500679, -173.207513531541, -99.996303444404)"/>
  <rect x="235.002" y="249.998" width="30" height="199.999" style="fill: #fca311; fill-rule: nonzero; paint-order: stroke; stroke-width: 2px; transform-origin: 250.001px 449.994px;" transform="matrix(0.499995052814, -0.866028010845, 0.866023004055, 0.500003993511, 173.199507653808, -299.994103703289)"/>
  <rect x="235" y="250" width="30" height="200" style="fill: #fca311; fill-rule: nonzero; paint-order: stroke; stroke-width: 2px; transform-origin: 249.999px 449.997px;" transform="matrix(-1, 0.000001, 0, -1, 173.200216345812, -299.997622223465)"/>
  <ellipse style="fill: #fca311; transform-origin: 250px 450px;" cx="250" cy="450" rx="15" ry="15" transform="matrix(-0.499997019768, -0.866027057171, 0.866023004055, -0.500002980232, 173.200337203681, -300.000301230614)"/>
  <ellipse style="fill: #fca311; transform-origin: 250px 50px;" cx="250" cy="50" rx="15" ry="15" transform="matrix(-0.499997019768, -0.866027057171, 0.866023004055, -0.500002980232, -173.206232277303, 299.999439233084)"/>
  <ellipse style="fill: #fca311; transform-origin: 250px 450px;" cx="250" cy="450" rx="15" ry="15" transform="matrix(-0.499996006489, 0.866028010845, -0.866023004055, -0.500003993511, -173.206222558384, -299.998596040054)"/>
  <ellipse style="fill: #fca311; transform-origin: 250px 50px;" cx="250" cy="50" rx="15" ry="15" transform="matrix(-0.499996006489, 0.866028010845, -0.866023004055, -0.500003993511, 173.200682615845, 300.001492788583)"/>
  <ellipse style="fill: #fca311; transform-origin: 250px 449.999px;" cx="250" cy="450" rx="15" ry="15"/>
  <ellipse style="fill: #fca311; transform-origin: 250px 49.999px;" cx="250" cy="50" rx="15" ry="15"/>
</svg>