<?xml version="1.0" encoding="utf-8"?>
<svg viewBox="35 35 430 430" xmlns="http://www.w3.org/2000/svg">
  <path style="fill: #fca311;" d="M 257.499 237.008 L 242.499 262.988 L 69.295 162.99 C 62.121 158.848 59.663 149.674 63.805 142.5 C 67.947 135.325 77.121 132.867 84.295 137.009 L 257.499 237.008 Z M 257.499 262.989 L 242.499 237.008 L 415.704 137.008 C 422.878 132.866 432.052 135.324 436.194 142.499 C 440.336 149.673 437.878 158.847 430.704 162.989 L 257.499 262.989 Z M 234.998 249.998 L 264.998 249.998 L 264.996 449.996 C 264.996 458.28 258.281 464.996 249.996 464.996 C 241.712 464.996 234.996 458.281 234.996 449.996 L 234.998 249.998 Z M 91.793 349.998 L 61.793 349.998 L 61.794 149.999 L 91.794 149.999 L 91.793 349.998 Z M 242.499 37.009 L 257.499 62.99 L 84.294 162.99 L 69.294 137.009 L 242.499 37.009 Z M 415.701 337.008 L 430.701 362.988 L 257.496 462.988 L 242.496 437.007 L 415.701 337.008 Z M 69.293 362.988 L 84.294 337.007 L 257.497 437.005 L 242.497 462.986 L 69.293 362.988 Z M 242.517 63.019 L 257.517 37.038 L 430.721 137.037 L 415.721 163.017 L 242.517 63.019 Z M 438.218 350.026 L 408.218 350.026 L 408.219 150.028 L 438.219 150.028 L 438.218 350.026 Z M 69.293 337.008 C 76.468 332.865 85.641 335.324 89.784 342.498 C 93.926 349.672 91.468 358.846 84.293 362.988 C 77.119 367.13 67.945 364.672 63.803 357.498 C 59.661 350.324 62.119 341.15 69.293 337.008 Z M 415.703 362.989 C 408.529 358.847 406.071 349.673 410.213 342.499 C 414.355 335.324 423.529 332.866 430.703 337.008 C 437.878 341.15 440.336 350.324 436.194 357.499 C 432.051 364.673 422.878 367.131 415.703 362.989 Z M 265 50 C 265 58.2842712474619 258.2842712474619 65 250 65 C 241.7157287525381 65 235 58.2842712474619 235 50 C 235 41.7157287525381 241.7157287525381 35 250 35 C 258.2842712474619 35 265 41.7157287525381 265 50 Z"/>
</svg>